<?xml version="1.0" encoding="UTF-8"?>
<!DOCTYPE svg PUBLIC "-//W3C//DTD SVG 1.1//EN" "http://www.w3.org/Graphics/SVG/1.1/DTD/svg11.dtd">
<!-- Creator: CorelDRAW X5 -->
<svg xmlns="http://www.w3.org/2000/svg" xml:space="preserve" width="4.45635in" height="3.18898in" style="shape-rendering:geometricPrecision; text-rendering:geometricPrecision; image-rendering:optimizeQuality; fill-rule:evenodd; clip-rule:evenodd"
viewBox="0 0 295 211"
 xmlns:xlink="http://www.w3.org/1999/xlink">
 <defs>
  <style type="text/css">
   <![CDATA[
    .str0 {stroke:black;stroke-width:5.21955;stroke-linecap:round;stroke-linejoin:round}
    .fil2 {fill:#096C95}
    .fil1 {fill:#2096D3}
    .fil0 {fill:black;fill-rule:nonzero}
   ]]>
  </style>
 </defs>
 <g id="Layer_x0020_1">
  <metadata id="CorelCorpID_0Corel-Layer"/>
  <g id="_1055278088">
   <path class="fil0 str0" d="M22 192c-5,0 -10,-2 -14,-6l0 0c-4,-4 -6,-8 -6,-14 0,-5 2,-10 6,-14l0 0c4,-4 8,-6 14,-6 5,0 10,2 14,6l0 0c4,4 6,8 6,14 0,5 -2,10 -6,14 -4,4 -8,6 -14,6zm-13 -7l0 0c3,3 8,5 13,5 5,0 9,-2 13,-5 3,-3 5,-8 5,-13 0,-5 -2,-9 -5,-13l0 0c-3,-3 -8,-5 -13,-5 -5,0 -9,2 -13,5 -3,3 -5,8 -5,13 0,5 2,9 5,13zm57 4c1,0 2,1 3,1 1,0 2,0 3,0 5,0 9,-2 13,-5 3,-3 5,-8 5,-13 0,-5 -2,-9 -5,-13l0 0c-3,-3 -8,-5 -13,-5 -5,0 -9,2 -13,5 -3,3 -5,8 -5,13l0 34 -2 0 0 -34c0,-5 2,-10 6,-14l0 0c4,-4 8,-6 14,-6 5,0 10,2 14,6l0 0c4,4 6,8 6,14 0,5 -2,10 -6,14 -4,4 -8,6 -14,6 -1,0 -2,0 -3,0 -1,0 -2,0 -3,-1l1 -2zm62 2c-1,0 -2,1 -3,1 -1,0 -2,0 -3,0 -5,0 -10,-2 -14,-6l0 0c-4,-4 -6,-8 -6,-14 0,-5 2,-10 6,-14l0 0c4,-4 8,-6 14,-6 5,0 10,2 14,6l0 0c4,4 6,8 6,14l0 19 -2 0 0 -19c0,-5 -2,-9 -5,-13l0 0c-3,-3 -8,-5 -13,-5 -5,0 -9,2 -13,5 -3,3 -5,8 -5,13 0,5 2,9 5,13l0 0c3,3 8,5 13,5 1,0 2,0 3,0 1,0 2,0 3,-1l1 2zm50 -30l0 21c0,4 -1,7 -4,9 -2,2 -5,4 -9,4l0 0c-3,0 -6,-1 -9,-4 -2,-2 -4,-6 -4,-9l0 -21 2 0 0 21c0,3 1,6 3,8 2,2 5,3 7,3l0 0c3,0 5,-1 7,-3 2,-2 3,-5 3,-8l0 -21 2 0zm23 0l0 21c0,4 -1,7 -4,9 -2,2 -5,4 -9,4l0 0c-3,0 -6,-1 -9,-4 -2,-2 -4,-6 -4,-9l0 -21 2 0 0 21c0,3 1,6 3,8 2,2 5,3 7,3l0 0c3,0 5,-1 7,-3 2,-2 3,-5 3,-8l0 -21 2 0zm19 12l23 0c-1,-3 -3,-6 -5,-8 -3,-2 -6,-4 -10,-4 -4,0 -8,2 -11,5 -3,3 -5,7 -5,11 0,4 2,9 5,11 3,3 7,5 11,5 3,0 5,-1 7,-2 2,-1 4,-3 6,-5l1 1c-2,2 -4,4 -6,5 -2,1 -5,2 -8,2 -5,0 -9,-2 -13,-5 -3,-3 -5,-8 -5,-13 0,-5 2,-9 5,-13 3,-3 8,-5 13,-5 4,0 8,1 11,4 3,3 5,6 6,10l0 1 -1 0 -24 0 0 -2zm70 -13l0 16c0,5 -2,9 -5,13 -3,3 -8,5 -13,5l0 0c-5,0 -9,-2 -13,-5 -3,-3 -5,-8 -5,-13l0 -16 2 0 0 16c0,4 2,9 5,11 3,3 7,5 11,5l0 0c4,0 9,-2 11,-5 3,-3 5,-7 5,-11l0 -16 2 0zm0 16l0 16c0,5 -2,9 -5,13 -3,3 -8,5 -13,5l0 0c-3,0 -5,-1 -7,-2 -2,-1 -4,-3 -6,-5l1 -1c2,2 3,3 5,4 2,1 4,1 7,1l0 0c4,0 9,-2 11,-5 3,-3 5,-7 5,-11l0 -16 2 0z"/>
   <path class="fil0" d="M173 129l-35 -122 20 0 18 70 7 26c0,-1 2,-10 6,-25l18 -71 20 0 17 71 6 23 7 -24 20 -70 19 0 -36 122 -20 0 -18 -73 -4 -21 -23 94 -20 0z"/>
   <path class="fil1" d="M70 113c-24,0 -43,-19 -43,-43 0,-24 19,-43 43,-43 24,0 43,19 43,43 0,24 -19,43 -43,43z"/>
   <path class="fil2" d="M70 118c-27,0 -48,-22 -48,-48 0,-27 22,-48 48,-48 27,0 48,22 48,48 0,27 -22,48 -48,48zm0 21c-38,0 -69,-31 -69,-69 0,-38 31,-69 69,-69 38,0 69,31 69,69 0,38 -31,69 -69,69z"/>
  </g>
 </g>
</svg>
