<?xml version="1.0" encoding="UTF-8"?>
<svg xmlns="http://www.w3.org/2000/svg" version="1.0" width="89" height="87" viewBox="0 0 89 87" preserveAspectRatio="xMidYMid meet">
  <g transform="translate(0,87) scale(0.1,-0.1)" fill="#000000" stroke="none">
    <path d="M135 724 c-140 -73 -154 -260 -27 -349 38 -26 53 -30 110 -30 53 0 75 5 105 24 133 82 125 280 -14 351 -47 24 -132 26 -174 4z m181 -87 c39 -42 49 -73 40 -122 -19 -99 -141 -146 -220 -84 -77 60 -72 175 9 230 24 16 42 19 84 16 47 -3 59 -9 87 -40z"/>
    <path d="M134 626 c-28 -28 -34 -42 -34 -75 0 -78 49 -131 120 -131 92 0 148 96 105 180 -22 43 -53 60 -108 60 -42 0 -54 -5 -83 -34z m81 13 c-4 -5 6 -9 22 -9 22 0 25 2 13 10 -10 6 -11 10 -3 10 7 0 26 -12 43 -27 77 -69 25 -196 -78 -192 -27 1 -27 1 3 9 30 7 30 7 -17 20 -53 14 -58 26 -56 122 1 36 5 48 21 55 27 12 59 14 52 2z m-88 -64 c-6 -19 -12 -33 -15 -31 -7 7 9 66 18 66 4 0 3 -16 -3 -35z m43 -132 c0 -3 -9 2 -20 12 -11 10 -20 22 -20 27 0 4 9 -1 20 -12 11 -11 20 -23 20 -27z"/>
    <path d="M266 622 c-3 -5 1 -9 9 -9 8 0 12 4 9 9 -3 4 -7 8 -9 8 -2 0 -6 -4 -9 -8z"/>
    <path d="M260 460 c-9 -6 -10 -10 -3 -10 6 0 15 5 18 10 8 12 4 12 -15 0z"/>
    <path d="M415 698 c4 -13 25 -93 49 -178 l43 -155 33 0 c37 0 31 -12 74 150 14 50 27 83 29 75 3 -8 18 -63 33 -122 l28 -108 33 0 c30 0 33 4 43 43 19 69 80 291 85 305 3 8 -6 12 -24 12 -28 0 -29 -2 -62 -129 l-34 -130 -35 130 -34 130 -31 -3 c-30 -3 -30 -4 -65 -132 -19 -71 -35 -125 -36 -120 -1 5 -17 64 -35 132 l-32 122 -34 0 c-30 0 -33 -2 -28 -22z"/>
    <path d="M100 286 c0 -2 8 -10 18 -17 15 -13 16 -12 3 4 -13 16 -21 21 -21 13z"/>
    <path d="M250 286 c0 -2 8 -10 18 -17 15 -13 16 -12 3 4 -13 16 -21 21 -21 13z"/>
    <path d="M329 273 c-13 -16 -12 -17 4 -4 9 7 17 15 17 17 0 8 -8 3 -21 -13z"/>
    <path d="M762 240 c0 -19 2 -27 5 -17 2 9 2 25 0 35 -3 9 -5 1 -5 -18z"/>
    <path d="M858 230 c-2 -23 0 -46 4 -53 4 -7 8 12 8 41 0 62 -6 68 -12 12z"/>
    <path d="M531 224 c0 -11 3 -14 6 -6 3 7 2 16 -1 19 -3 4 -6 -2 -5 -13z"/>
    <path d="M109 193 c-13 -16 -12 -17 4 -4 9 7 17 15 17 17 0 8 -8 3 -21 -13z"/>
    <path d="M320 206 c0 -2 8 -10 18 -17 15 -13 16 -12 3 4 -13 16 -21 21 -21 13z"/>
  </g>
</svg>
